<svg width="71" height="45" viewBox="0 0 71 45" fill="none" xmlns="http://www.w3.org/2000/svg">
<path d="M17.0797 36.432C14.7437 36.432 12.7917 35.952 11.2237 34.992C9.68773 34.032 8.53573 32.56 7.76773 30.576C6.99973 28.592 6.61573 26.048 6.61573 22.944C6.61573 19.904 7.01573 17.392 7.81573 15.408C8.64773 13.424 9.84773 11.952 11.4157 10.992C12.9837 10.032 14.8717 9.552 17.0797 9.552C19.4477 9.552 21.5917 10.096 23.5117 11.184C25.4637 12.272 26.9997 13.824 28.1197 15.84C29.2717 17.824 29.8477 20.192 29.8477 22.944C29.8477 25.728 29.2717 28.128 28.1197 30.144C26.9997 32.128 25.4637 33.68 23.5117 34.8C21.5917 35.888 19.4477 36.432 17.0797 36.432ZM0.711734 36V0.383998H9.83173V14.352L9.35173 22.944L9.39973 31.536V36H0.711734ZM15.1597 29.184C16.1837 29.184 17.0957 28.944 17.8957 28.464C18.7277 27.984 19.3837 27.28 19.8637 26.352C20.3757 25.392 20.6317 24.256 20.6317 22.944C20.6317 21.632 20.3757 20.528 19.8637 19.632C19.3837 18.704 18.7277 18 17.8957 17.52C17.0957 17.04 16.1837 16.8 15.1597 16.8C14.1357 16.8 13.2077 17.04 12.3757 17.52C11.5757 18 10.9197 18.704 10.4077 19.632C9.92773 20.528 9.68773 21.632 9.68773 22.944C9.68773 24.256 9.92773 25.392 10.4077 26.352C10.9197 27.28 11.5757 27.984 12.3757 28.464C13.2077 28.944 14.1357 29.184 15.1597 29.184ZM50.5027 36.672C47.8147 36.672 45.3347 36.24 43.0627 35.376C40.7907 34.512 38.8067 33.296 37.1107 31.728C35.4467 30.128 34.1507 28.272 33.2227 26.16C32.2947 24.048 31.8307 21.728 31.8307 19.2C31.8307 16.672 32.2947 14.352 33.2227 12.24C34.1507 10.128 35.4467 8.288 37.1107 6.72C38.8067 5.12 40.7907 3.888 43.0627 3.024C45.3347 2.16 47.8147 1.728 50.5027 1.728C53.2227 1.728 55.7027 2.16 57.9427 3.024C60.2147 3.888 62.1827 5.104 63.8467 6.672C65.5107 8.24 66.8067 10.096 67.7347 12.24C68.6947 14.352 69.1747 16.672 69.1747 19.2C69.1747 21.728 68.6947 24.064 67.7347 26.208C66.8067 28.32 65.5107 30.16 63.8467 31.728C62.1827 33.296 60.2147 34.512 57.9427 35.376C55.7027 36.24 53.2227 36.672 50.5027 36.672ZM61.4947 44.112C60.0547 44.112 58.7107 43.952 57.4627 43.632C56.2147 43.344 54.9827 42.864 53.7667 42.192C52.5827 41.52 51.3347 40.608 50.0227 39.456C48.7427 38.304 47.3027 36.88 45.7027 35.184L55.6387 32.688C56.4387 33.872 57.1587 34.8 57.7987 35.472C58.4387 36.144 59.0627 36.624 59.6707 36.912C60.3107 37.2 60.9827 37.344 61.6867 37.344C63.5427 37.344 65.2387 36.56 66.7747 34.992L70.9027 39.888C68.5667 42.704 65.4307 44.112 61.4947 44.112ZM50.5027 28.8C51.7827 28.8 52.9667 28.576 54.0547 28.128C55.1747 27.68 56.1347 27.04 56.9347 26.208C57.7667 25.344 58.4067 24.32 58.8547 23.136C59.3347 21.952 59.5747 20.64 59.5747 19.2C59.5747 17.728 59.3347 16.416 58.8547 15.264C58.4067 14.08 57.7667 13.072 56.9347 12.24C56.1347 11.376 55.1747 10.72 54.0547 10.272C52.9667 9.824 51.7827 9.6 50.5027 9.6C49.2227 9.6 48.0227 9.824 46.9027 10.272C45.8147 10.72 44.8547 11.376 44.0227 12.24C43.2227 13.072 42.5827 14.08 42.1027 15.264C41.6547 16.416 41.4307 17.728 41.4307 19.2C41.4307 20.64 41.6547 21.952 42.1027 23.136C42.5827 24.32 43.2227 25.344 44.0227 26.208C44.8547 27.04 45.8147 27.68 46.9027 28.128C48.0227 28.576 49.2227 28.8 50.5027 28.8Z" fill="#F29D52"/>
</svg>
