<svg width="14" height="14" viewBox="0 0 14 14" fill="none" xmlns="http://www.w3.org/2000/svg">
<rect width="14" height="14" fill="#F5F5F5"/>
<g id="Desktop - 2" clip-path="url(#clip0_0_1)">
<rect width="1440" height="3828" transform="translate(-886 -1087)" fill="black"/>
<g id="Frame 6">
<g id="Frame 8">
<path id="Vector" fill-rule="evenodd" clip-rule="evenodd" d="M6.78371 0.349976C6.91632 0.349976 7.0435 0.402654 7.13726 0.496422C7.23103 0.59019 7.28371 0.717367 7.28371 0.849976V3.02198C7.28371 3.15458 7.23103 3.28176 7.13726 3.37553C7.0435 3.4693 6.91632 3.52198 6.78371 3.52198C6.6511 3.52198 6.52392 3.4693 6.43016 3.37553C6.33639 3.28176 6.28371 3.15458 6.28371 3.02198V1.37198C5.02292 1.48409 3.8363 2.01631 2.91409 2.88332C1.99189 3.75032 1.38753 4.90188 1.19791 6.15336C1.00829 7.40484 1.2444 8.68374 1.86837 9.78502C2.49235 10.8863 3.46805 11.7462 4.63904 12.2267C5.81002 12.7073 7.10847 12.7807 8.32617 12.4353C9.54388 12.0898 10.6103 11.3455 11.3545 10.3216C12.0987 9.29769 12.4775 8.05356 12.4302 6.78868C12.3829 5.52381 11.9123 4.31144 11.0937 3.34598C11.0491 3.29625 11.0149 3.23808 10.9931 3.17491C10.9714 3.11175 10.9625 3.04486 10.967 2.9782C10.9715 2.91154 10.9894 2.84647 11.0195 2.78682C11.0496 2.72717 11.0913 2.67416 11.1422 2.63092C11.1932 2.58767 11.2523 2.55508 11.316 2.53505C11.3797 2.51502 11.4468 2.50797 11.5133 2.51432C11.5799 2.52066 11.6444 2.54027 11.7032 2.57199C11.762 2.6037 11.8139 2.64688 11.8557 2.69898C12.8356 3.85452 13.3916 5.31004 13.4315 6.82461C13.4715 8.33918 12.993 9.82198 12.0754 11.0276C11.1578 12.2332 9.856 13.0893 8.3855 13.4542C6.91501 13.8191 5.36399 13.671 3.98918 13.0342C2.61437 12.3975 1.4982 11.3104 0.825421 9.9529C0.152644 8.59538 -0.0364008 7.04881 0.289579 5.5692C0.61556 4.08958 1.43702 2.76565 2.61798 1.81652C3.79895 0.867401 5.26861 0.350004 6.78371 0.349976ZM7.54371 7.57998L10.0597 4.07298C10.0932 4.02483 10.1087 3.96645 10.1035 3.90803C10.0983 3.84961 10.0727 3.79488 10.0313 3.75341C9.98981 3.71194 9.93507 3.68637 9.87666 3.68117C9.81824 3.67597 9.75985 3.69148 9.71171 3.72498L6.20271 6.23998C6.08981 6.32126 5.99592 6.42611 5.92755 6.54727C5.85918 6.66844 5.81796 6.80301 5.80675 6.94167C5.79553 7.08034 5.81459 7.21979 5.8626 7.35036C5.91061 7.48094 5.98643 7.59951 6.0848 7.69789C6.18317 7.79626 6.30175 7.87207 6.43232 7.92008C6.5629 7.9681 6.70234 7.98715 6.84101 7.97594C6.97968 7.96472 7.11425 7.9235 7.23541 7.85513C7.35657 7.78676 7.46142 7.69288 7.54271 7.57998H7.54371Z" fill="white"/>
</g>
</g>
</g>
<defs>
<clipPath id="clip0_0_1">
<rect width="1440" height="3828" fill="white" transform="translate(-886 -1087)"/>
</clipPath>
</defs>
</svg>
